{
	"asset":{
		"generator":"Khronos glTF Blender I/O v4.4.55",
		"version":"2.0"
	},
	"extensionsUsed":[
		"KHR_materials_specular"
	],
	"scene":0,
	"scenes":[
		{
			"name":"Scene",
			"nodes":[
				0
			]
		}
	],
	"nodes":[
		{
			"mesh":0,
			"name":"tinker",
			"translation":[
				-0.18927001953125,
				47.76142120361328,
				9.375019073486328
			]
		}
	],
	"materials":[
		{
			"doubleSided":true,
			"extensions":{
				"KHR_materials_specular":{
					"specularFactor":0
				}
			},
			"name":"color_2829873",
			"pbrMetallicRoughness":{
				"baseColorFactor":[
					0.16862745583057404,
					0.18039216101169586,
					0.1921568661928177,
					1
				],
				"metallicFactor":0
			}
		},
		{
			"doubleSided":true,
			"extensions":{
				"KHR_materials_specular":{
					"specularFactor":0
				}
			},
			"name":"color_12568524",
			"pbrMetallicRoughness":{
				"baseColorFactor":[
					0.7490196228027344,
					0.7803921699523926,
					0.800000011920929,
					1
				],
				"metallicFactor":0
			}
		},
		{
			"doubleSided":true,
			"extensions":{
				"KHR_materials_specular":{
					"specularFactor":0
				}
			},
			"name":"color_16089887",
			"pbrMetallicRoughness":{
				"baseColorFactor":[
					0.9607843160629272,
					0.5137255191802979,
					0.12156862765550613,
					1
				],
				"metallicFactor":0
			}
		},
		{
			"doubleSided":true,
			"extensions":{
				"KHR_materials_specular":{
					"specularFactor":0
				}
			},
			"name":"color_16448250",
			"pbrMetallicRoughness":{
				"baseColorFactor":[
					0.9803921580314636,
					0.9803921580314636,
					0.9803921580314636,
					1
				],
				"metallicFactor":0
			}
		},
		{
			"alphaMode":"BLEND",
			"doubleSided":true,
			"extensions":{
				"KHR_materials_specular":{
					"specularFactor":0
				}
			},
			"name":"color_-1711963361",
			"pbrMetallicRoughness":{
				"baseColorFactor":[
					0.9607843160629272,
					0.5137255191802979,
					0.12156862765550613,
					0.4000000059604645
				],
				"metallicFactor":0
			}
		}
	],
	"meshes":[
		{
			"name":"tinker",
			"primitives":[
				{
					"attributes":{
						"POSITION":0,
						"NORMAL":1
					},
					"indices":2,
					"material":0
				},
				{
					"attributes":{
						"POSITION":3,
						"NORMAL":4
					},
					"indices":5,
					"material":1
				},
				{
					"attributes":{
						"POSITION":6,
						"NORMAL":7
					},
					"indices":8,
					"material":2
				},
				{
					"attributes":{
						"POSITION":9,
						"NORMAL":10
					},
					"indices":11,
					"material":3
				},
				{
					"attributes":{
						"POSITION":12,
						"NORMAL":13
					},
					"indices":14,
					"material":4
				}
			]
		}
	],
	"accessors":[
		{
			"bufferView":0,
			"componentType":5126,
			"count":4797,
			"max":[
				20.701416015625,
				36.72857666015625,
				20.92498016357422
			],
			"min":[
				-21.205490112304688,
				-25.431421279907227,
				-16.420320510864258
			],
			"type":"VEC3"
		},
		{
			"bufferView":1,
			"componentType":5126,
			"count":4797,
			"type":"VEC3"
		},
		{
			"bufferView":2,
			"componentType":5123,
			"count":5178,
			"type":"SCALAR"
		},
		{
			"bufferView":3,
			"componentType":5126,
			"count":3502,
			"max":[
				14.551513671875,
				-5.034420013427734,
				-5.322021484375
			],
			"min":[
				-11.448486328125,
				-34.16762161254883,
				-25.82501983642578
			],
			"type":"VEC3"
		},
		{
			"bufferView":4,
			"componentType":5126,
			"count":3502,
			"type":"VEC3"
		},
		{
			"bufferView":5,
			"componentType":5123,
			"count":4332,
			"type":"SCALAR"
		},
		{
			"bufferView":6,
			"componentType":5126,
			"count":16768,
			"max":[
				28.551513671875,
				26.93207550048828,
				15.362979888916016
			],
			"min":[
				-27.448486328125,
				-29.931421279907227,
				-22.43902015686035
			],
			"type":"VEC3"
		},
		{
			"bufferView":7,
			"componentType":5126,
			"count":16768,
			"type":"VEC3"
		},
		{
			"bufferView":8,
			"componentType":5123,
			"count":18681,
			"type":"SCALAR"
		},
		{
			"bufferView":9,
			"componentType":5126,
			"count":57833,
			"max":[
				25.551513671875,
				42.068580627441406,
				15.514781951904297
			],
			"min":[
				-24.712493896484375,
				-47.76142120361328,
				-26.57501983642578
			],
			"type":"VEC3"
		},
		{
			"bufferView":10,
			"componentType":5126,
			"count":57833,
			"type":"VEC3"
		},
		{
			"bufferView":11,
			"componentType":5123,
			"count":60879,
			"type":"SCALAR"
		},
		{
			"bufferView":12,
			"componentType":5126,
			"count":16126,
			"max":[
				23.467819213867188,
				38.11968231201172,
				22.92498016357422
			],
			"min":[
				-22.364791870117188,
				-1.9317207336425781,
				3.074779510498047
			],
			"type":"VEC3"
		},
		{
			"bufferView":13,
			"componentType":5126,
			"count":16126,
			"type":"VEC3"
		},
		{
			"bufferView":14,
			"componentType":5123,
			"count":16818,
			"type":"SCALAR"
		}
	],
	"bufferViews":[
		{
			"buffer":0,
			"byteLength":57564,
			"byteOffset":0,
			"target":34962
		},
		{
			"buffer":0,
			"byteLength":57564,
			"byteOffset":57564,
			"target":34962
		},
		{
			"buffer":0,
			"byteLength":10356,
			"byteOffset":115128,
			"target":34963
		},
		{
			"buffer":0,
			"byteLength":42024,
			"byteOffset":125484,
			"target":34962
		},
		{
			"buffer":0,
			"byteLength":42024,
			"byteOffset":167508,
			"target":34962
		},
		{
			"buffer":0,
			"byteLength":8664,
			"byteOffset":209532,
			"target":34963
		},
		{
			"buffer":0,
			"byteLength":201216,
			"byteOffset":218196,
			"target":34962
		},
		{
			"buffer":0,
			"byteLength":201216,
			"byteOffset":419412,
			"target":34962
		},
		{
			"buffer":0,
			"byteLength":37362,
			"byteOffset":620628,
			"target":34963
		},
		{
			"buffer":0,
			"byteLength":693996,
			"byteOffset":657992,
			"target":34962
		},
		{
			"buffer":0,
			"byteLength":693996,
			"byteOffset":1351988,
			"target":34962
		},
		{
			"buffer":0,
			"byteLength":121758,
			"byteOffset":2045984,
			"target":34963
		},
		{
			"buffer":0,
			"byteLength":193512,
			"byteOffset":2167744,
			"target":34962
		},
		{
			"buffer":0,
			"byteLength":193512,
			"byteOffset":2361256,
			"target":34962
		},
		{
			"buffer":0,
			"byteLength":33636,
			"byteOffset":2554768,
			"target":34963
		}
	],
	"buffers":[
		{
			"byteLength":2588404,
			"uri":"astronaut.bin"
		}
	]
}
